<svg width="163" height="161" viewBox="0 0 163 161" fill="none" xmlns="http://www.w3.org/2000/svg">
<g filter="url(#filter0_d_68_373)">
<mask id="mask0_68_373" style="mask-type:luminance" maskUnits="userSpaceOnUse" x="105" y="91" width="21" height="23">
<path d="M105.054 91.6663H125.917V113.572H105.054V91.6663Z" fill="white"/>
</mask>
<g mask="url(#mask0_68_373)">
<mask id="mask1_68_373" style="mask-type:luminance" maskUnits="userSpaceOnUse" x="7" y="3" width="192" height="174">
<path d="M7.81497 55.9268L155.21 3.41154L198.272 124.276L50.8768 176.792L7.81497 55.9268Z" fill="white"/>
</mask>
<g mask="url(#mask1_68_373)">
<mask id="mask2_68_373" style="mask-type:luminance" maskUnits="userSpaceOnUse" x="7" y="3" width="192" height="174">
<path d="M7.81497 55.9268L155.21 3.41154L198.272 124.276L50.8768 176.792L7.81497 55.9268Z" fill="white"/>
</mask>
<g mask="url(#mask2_68_373)">
<path d="M107.108 91.6785L105.641 112.916C108.489 111.612 110.922 109.836 113.306 108.03C115.421 106.409 124.173 102.835 125.151 101.038C122.796 100.716 108.53 91.2547 107.108 91.6785Z" fill="white"/>
</g>
</g>
</g>
<mask id="mask3_68_373" style="mask-type:luminance" maskUnits="userSpaceOnUse" x="67" y="38" width="31" height="15">
<path d="M67.5017 38.4665H97.7526V52.0272H67.5017V38.4665Z" fill="white"/>
</mask>
<g mask="url(#mask3_68_373)">
<mask id="mask4_68_373" style="mask-type:luminance" maskUnits="userSpaceOnUse" x="7" y="3" width="192" height="174">
<path d="M7.81497 55.9268L155.21 3.41154L198.272 124.276L50.8768 176.792L7.81497 55.9268Z" fill="white"/>
</mask>
<g mask="url(#mask4_68_373)">
<mask id="mask5_68_373" style="mask-type:luminance" maskUnits="userSpaceOnUse" x="7" y="3" width="192" height="174">
<path d="M7.81497 55.9268L155.21 3.41154L198.272 124.276L50.8768 176.792L7.81497 55.9268Z" fill="white"/>
</mask>
<g mask="url(#mask5_68_373)">
<path d="M96.4364 40.9113C94.8799 40.2675 93.3804 38.7273 92.2924 38.5765C89.1712 38.1976 73.2186 47.0316 69.8202 49.8146C68.8219 50.6255 68.174 51.3549 67.7054 52.0191L97.7037 41.331C97.3084 41.2658 96.9213 41.111 96.4364 40.9113Z" fill="white"/>
</g>
</g>
</g>
<mask id="mask6_68_373" style="mask-type:luminance" maskUnits="userSpaceOnUse" x="7" y="15" width="115" height="54">
<path d="M7 15.5176H121.745V68.7173H7V15.5176Z" fill="white"/>
</mask>
<g mask="url(#mask6_68_373)">
<mask id="mask7_68_373" style="mask-type:luminance" maskUnits="userSpaceOnUse" x="7" y="3" width="192" height="174">
<path d="M7.81494 55.9267L155.21 3.41153L198.272 124.276L50.8768 176.792L7.81494 55.9267Z" fill="white"/>
</mask>
<g mask="url(#mask7_68_373)">
<mask id="mask8_68_373" style="mask-type:luminance" maskUnits="userSpaceOnUse" x="7" y="3" width="192" height="174">
<path d="M7.81494 55.9267L155.21 3.41153L198.272 124.276L50.8768 176.792L7.81494 55.9267Z" fill="white"/>
</mask>
<g mask="url(#mask8_68_373)">
<path d="M85.7891 28.5893L7.95755 56.3179L22.0398 68.2895L57.1885 55.7678C57.0052 55.1281 56.8788 54.4272 56.8625 53.6856C56.5284 48.7919 59.7434 48.5148 64.3397 46.1759C70.3377 43.128 75.2885 35.9768 81.4617 31.788C87.9039 27.4239 92.4309 29.0824 102.165 30.0073C107.361 30.5167 102.663 31.9836 111.863 31.6454C115.995 31.4987 119.214 31.9265 119.393 27.3058C119.552 23.1088 117.462 21.0755 119.964 17.286C120.265 16.8459 120.575 16.4425 120.901 16.0799L85.7891 28.5893Z" fill="white"/>
</g>
</g>
</g>
<mask id="mask9_68_373" style="mask-type:luminance" maskUnits="userSpaceOnUse" x="69" y="93" width="20" height="21">
<path d="M69.588 93.7525H88.3643V113.572H69.588V93.7525Z" fill="white"/>
</mask>
<g mask="url(#mask9_68_373)">
<mask id="mask10_68_373" style="mask-type:luminance" maskUnits="userSpaceOnUse" x="7" y="3" width="192" height="174">
<path d="M7.81494 55.9268L155.21 3.41154L198.272 124.276L50.8768 176.792L7.81494 55.9268Z" fill="white"/>
</mask>
<g mask="url(#mask10_68_373)">
<mask id="mask11_68_373" style="mask-type:luminance" maskUnits="userSpaceOnUse" x="7" y="3" width="192" height="174">
<path d="M7.81494 55.9268L155.21 3.41154L198.272 124.276L50.8768 176.792L7.81494 55.9268Z" fill="white"/>
</mask>
<g mask="url(#mask11_68_373)">
<path fill-rule="evenodd" clip-rule="evenodd" d="M70.0036 99.0578L72.5014 101.189L86.3596 112.993L87.5372 112.574C87.4434 110.329 87.6227 108.397 87.3742 105.834C87.2519 104.677 86.7507 103.157 86.1232 101.515C84.8967 98.8867 84.2896 96.3685 84.1185 94.0255L70.0036 99.0578Z" fill="white"/>
</g>
</g>
</g>
<mask id="mask12_68_373" style="mask-type:luminance" maskUnits="userSpaceOnUse" x="124" y="3" width="33" height="52">
<path d="M124.874 3H156.168V54.1135H124.874V3Z" fill="white"/>
</mask>
<g mask="url(#mask12_68_373)">
<mask id="mask13_68_373" style="mask-type:luminance" maskUnits="userSpaceOnUse" x="7" y="3" width="192" height="174">
<path d="M7.81499 55.9268L155.21 3.41156L198.272 124.276L50.8768 176.792L7.81499 55.9268Z" fill="white"/>
</mask>
<g mask="url(#mask13_68_373)">
<mask id="mask14_68_373" style="mask-type:luminance" maskUnits="userSpaceOnUse" x="7" y="3" width="192" height="174">
<path d="M7.81499 55.9268L155.21 3.41156L198.272 124.276L50.8768 176.792L7.81499 55.9268Z" fill="white"/>
</mask>
<g mask="url(#mask14_68_373)">
<path fill-rule="evenodd" clip-rule="evenodd" d="M150.663 29.2576L155.353 3.80681L130.387 12.702C140.289 13.8551 138.423 25.953 138.952 27.5503L137.616 31.5884C135.322 38.4136 134.723 38.5847 129.315 36.9059C127.07 38.1609 126.883 39.2652 125.351 40.8869C129.426 48.8408 132.408 47.325 135.02 50.2466C136.487 51.9172 136.344 52.6751 138.243 53.8201C141.654 51.6524 144.172 45.5769 144.926 43.1525C146.523 37.9857 143.443 36.4332 144.425 30.1133C147.847 28.5649 147.346 27.6236 150.663 29.2576Z" fill="white"/>
</g>
</g>
</g>
<mask id="mask15_68_373" style="mask-type:luminance" maskUnits="userSpaceOnUse" x="36" y="42" width="66" height="39">
<path d="M36.2077 42.639H101.925V80.1918H36.2077V42.639Z" fill="white"/>
</mask>
<g mask="url(#mask15_68_373)">
<mask id="mask16_68_373" style="mask-type:luminance" maskUnits="userSpaceOnUse" x="7" y="3" width="192" height="174">
<path d="M7.81497 55.9267L155.21 3.41153L198.272 124.276L50.8768 176.792L7.81497 55.9267Z" fill="white"/>
</mask>
<g mask="url(#mask16_68_373)">
<mask id="mask17_68_373" style="mask-type:luminance" maskUnits="userSpaceOnUse" x="7" y="3" width="192" height="174">
<path d="M7.81497 55.9267L155.21 3.41153L198.272 124.276L50.8768 176.792L7.81497 55.9267Z" fill="white"/>
</mask>
<g mask="url(#mask17_68_373)">
<path fill-rule="evenodd" clip-rule="evenodd" d="M64.3723 58.013C61.6952 60.0422 59.6293 59.704 58.3254 58.1393L36.9616 65.7469L53.3216 79.6825L92.8099 65.6165C94.5661 59.7285 96.7176 52.1658 98.1763 49.2849C99.2684 47.1131 100.837 44.7742 101.265 42.8387L66.3771 55.2707C66.0715 56.1631 65.6477 57.0636 64.3723 58.013Z" fill="white"/>
</g>
</g>
</g>
<mask id="mask18_68_373" style="mask-type:luminance" maskUnits="userSpaceOnUse" x="115" y="56" width="29" height="35">
<path d="M115.486 56.1998H143.65V90.6231H115.486V56.1998Z" fill="white"/>
</mask>
<g mask="url(#mask18_68_373)">
<mask id="mask19_68_373" style="mask-type:luminance" maskUnits="userSpaceOnUse" x="7" y="3" width="192" height="174">
<path d="M7.815 55.9268L155.21 3.41156L198.272 124.276L50.8768 176.792L7.815 55.9268Z" fill="white"/>
</mask>
<g mask="url(#mask19_68_373)">
<mask id="mask20_68_373" style="mask-type:luminance" maskUnits="userSpaceOnUse" x="7" y="3" width="192" height="174">
<path d="M7.815 55.9268L155.21 3.41156L198.272 124.276L50.8768 176.792L7.815 55.9268Z" fill="white"/>
</mask>
<g mask="url(#mask20_68_373)">
<path fill-rule="evenodd" clip-rule="evenodd" d="M139.539 66.9897C137.449 65.6613 134.397 63.7258 131.76 62.263C125.294 58.6405 126.072 58.0334 124.573 57.1981C122.075 59.9526 121.219 65.2294 115.869 70.4491H115.991C116.069 70.5469 116.121 70.6936 116.199 70.7914C116.272 70.8892 116.313 70.9992 116.39 71.0929L116.415 71.1663C116.492 71.2641 116.529 71.3741 116.606 71.4719L116.619 71.5086C116.696 71.6063 116.733 71.7164 116.798 71.7775L116.822 71.8508C116.9 71.9486 116.924 72.022 117.002 72.1198L117.079 72.2176L117.23 72.4091L117.332 72.5802L117.344 72.6169L117.36 72.6536L117.372 72.6902L117.487 72.898L117.499 72.9347L117.515 72.9714L117.527 73.0081L117.678 73.2036L117.69 73.2403L117.707 73.277L117.731 73.3503C121.924 79.1894 127.604 83.5046 133.936 87.0903L134.087 87.1637L134.099 87.2004L134.148 87.2248L134.299 87.2941C135.33 88.0887 137.045 88.8425 138.879 89.6819L141.377 75.9908L143.475 64.553C142.758 66.8389 141.756 66.2399 139.539 66.9897Z" fill="white"/>
</g>
</g>
</g>
<mask id="mask21_68_373" style="mask-type:luminance" maskUnits="userSpaceOnUse" x="26" y="67" width="67" height="40">
<path d="M26.8195 67.6742H92.5369V106.27H26.8195V67.6742Z" fill="white"/>
</mask>
<g mask="url(#mask21_68_373)">
<mask id="mask22_68_373" style="mask-type:luminance" maskUnits="userSpaceOnUse" x="7" y="3" width="192" height="174">
<path d="M7.81497 55.9268L155.21 3.41155L198.272 124.276L50.8768 176.792L7.81497 55.9268Z" fill="white"/>
</mask>
<g mask="url(#mask22_68_373)">
<mask id="mask23_68_373" style="mask-type:luminance" maskUnits="userSpaceOnUse" x="7" y="3" width="192" height="174">
<path d="M7.81497 55.9268L155.21 3.41155L198.272 124.276L50.8768 176.792L7.81497 55.9268Z" fill="white"/>
</mask>
<g mask="url(#mask23_68_373)">
<path fill-rule="evenodd" clip-rule="evenodd" d="M87.7858 78.9653L87.8347 78.8635L87.9284 78.6638L87.9773 78.566L88.0221 78.4641L88.071 78.3663L88.1647 78.1667L88.2136 78.0689L88.2584 77.967L88.3073 77.8692L88.3562 77.7673L88.4133 77.5799L88.4581 77.4821L88.507 77.3802L88.6577 76.9972L88.7066 76.8954L88.7555 76.7976L88.8493 76.5979L88.8941 76.496L88.943 76.3982L88.9919 76.2964L89.0163 76.2475L89.0856 76.0967L89.1345 75.9989L89.1793 75.9011L89.2282 75.7992L89.2527 75.7504L89.273 75.7015L89.4156 75.3999L89.4645 75.3021L89.5134 75.2003L89.5583 75.1025L89.652 74.9028L89.7009 74.8009L89.7498 74.7031L89.7946 74.6013L89.8883 74.4016L89.9372 74.3038L89.9861 74.202L90.0309 74.1042L90.1735 73.8067L90.2224 73.7048L90.2673 73.607L90.4343 73.2566L90.4588 73.2077L90.4832 73.1547L90.5036 73.1058L90.6584 72.7228C91.0944 71.7367 91.4815 70.7303 91.8564 69.6831L91.6445 69.6749C91.7627 69.3041 91.9135 68.917 92.0153 68.5095L27.5652 91.4707L43.9253 105.406L84.037 91.1162C84.3345 86.9477 85.8706 83.0034 87.688 78.9164L87.7858 78.9653Z" fill="white"/>
</g>
</g>
</g>
<mask id="mask24_68_373" style="mask-type:luminance" maskUnits="userSpaceOnUse" x="104" y="107" width="33" height="43">
<path d="M104.011 107.313H136.348V149.039H104.011V107.313Z" fill="white"/>
</mask>
<g mask="url(#mask24_68_373)">
<mask id="mask25_68_373" style="mask-type:luminance" maskUnits="userSpaceOnUse" x="7" y="3" width="192" height="174">
<path d="M7.81493 55.9268L155.21 3.41154L198.272 124.276L50.8767 176.792L7.81493 55.9268Z" fill="white"/>
</mask>
<g mask="url(#mask25_68_373)">
<mask id="mask26_68_373" style="mask-type:luminance" maskUnits="userSpaceOnUse" x="7" y="3" width="192" height="174">
<path d="M7.81493 55.9268L155.21 3.41154L198.272 124.276L50.8767 176.792L7.81493 55.9268Z" fill="white"/>
</mask>
<g mask="url(#mask26_68_373)">
<path fill-rule="evenodd" clip-rule="evenodd" d="M107.373 123.364C105.878 125.095 104.961 126.709 104.439 128.384L128.7 149.034L136.263 107.806C126.215 112.631 112.568 117.243 107.373 123.364Z" fill="white"/>
</g>
</g>
</g>
</g>
<defs>
<filter id="filter0_d_68_373" x="0.267175" y="0.755724" width="162.71" height="160.466" filterUnits="userSpaceOnUse" color-interpolation-filters="sRGB">
<feFlood flood-opacity="0" result="BackgroundImageFix"/>
<feColorMatrix in="SourceAlpha" type="matrix" values="0 0 0 0 0 0 0 0 0 0 0 0 0 0 0 0 0 0 127 0" result="hardAlpha"/>
<feOffset dy="4.48855"/>
<feGaussianBlur stdDeviation="3.36641"/>
<feComposite in2="hardAlpha" operator="out"/>
<feColorMatrix type="matrix" values="0 0 0 0 0 0 0 0 0 0 0 0 0 0 0 0 0 0 0.35 0"/>
<feBlend mode="normal" in2="BackgroundImageFix" result="effect1_dropShadow_68_373"/>
<feBlend mode="normal" in="SourceGraphic" in2="effect1_dropShadow_68_373" result="shape"/>
</filter>
</defs>
</svg>
