<svg width="25" height="24" viewBox="0 0 25 24" fill="none" xmlns="http://www.w3.org/2000/svg">
<path d="M17.6667 2V5M7.66666 2V5" stroke="#262626" stroke-width="1.5" stroke-linecap="round" stroke-linejoin="round"/>
<path d="M13.6667 3.5H11.6667C7.89542 3.5 6.00981 3.5 4.83823 4.67157C3.66666 5.84315 3.66666 7.72876 3.66666 11.5V14C3.66666 17.7712 3.66666 19.6569 4.83823 20.8284C6.00981 22 7.89542 22 11.6667 22H13.6667C17.4379 22 19.3236 22 20.4951 20.8284C21.6667 19.6569 21.6667 17.7712 21.6667 14V11.5C21.6667 7.72876 21.6667 5.84315 20.4951 4.67157C19.3236 3.5 17.4379 3.5 13.6667 3.5Z" stroke="#262626" stroke-width="1.5" stroke-linecap="round" stroke-linejoin="round"/>
<path d="M4.16666 8.5H21.1667" stroke="#262626" stroke-width="1.5" stroke-linecap="round" stroke-linejoin="round"/>
<path d="M9.66666 15.5C9.66666 15.5 11.1667 16 11.6667 17.5C11.6667 17.5 13.8432 13.5 16.6667 12.5" stroke="#262626" stroke-width="1.5" stroke-linecap="round" stroke-linejoin="round"/>
</svg>
