<svg width="20" height="20" viewBox="0 0 20 20" fill="none" xmlns="http://www.w3.org/2000/svg">
<path d="M15 1.6665V3.33317M5 1.6665V3.33317" stroke="#DE4600" stroke-width="1.5" stroke-linecap="round" stroke-linejoin="round"/>
<path d="M10.3296 10H10.3371M10.3296 13.3333H10.3371M13.6592 10H13.6667M7 10H7.00748M7 13.3333H7.00748" stroke="#DE4600" stroke-width="1.5" stroke-linecap="round" stroke-linejoin="round"/>
<path d="M2.08337 10.2027C2.08337 6.57162 2.08337 4.75607 3.12681 3.62803C4.17024 2.5 5.84962 2.5 9.20838 2.5H10.7917C14.1505 2.5 15.8299 2.5 16.8733 3.62803C17.9167 4.75607 17.9167 6.57162 17.9167 10.2027V10.6307C17.9167 14.2618 17.9167 16.0773 16.8733 17.2053C15.8299 18.3333 14.1505 18.3333 10.7917 18.3333H9.20838C5.84962 18.3333 4.17024 18.3333 3.12681 17.2053C2.08337 16.0773 2.08337 14.2618 2.08337 10.6307V10.2027Z" stroke="#DE4600" stroke-width="1.5" stroke-linecap="round" stroke-linejoin="round"/>
<path d="M2.5 6.6665H17.5" stroke="#DE4600" stroke-width="1.5" stroke-linecap="round" stroke-linejoin="round"/>
</svg>
