<svg width="25" height="24" viewBox="0 0 25 24" fill="none" xmlns="http://www.w3.org/2000/svg">
<path d="M7.33331 7H7.34228M13.3243 7H13.3333" stroke="#262626" stroke-width="2" stroke-linecap="round" stroke-linejoin="round"/>
<path d="M18.3243 14.5H18.3333M14.3333 14.5H14.3423" stroke="#262626" stroke-width="2" stroke-linecap="round" stroke-linejoin="round"/>
<path d="M10.3333 16C10.3333 18.7614 13.0196 21 16.3333 21C17.2405 21 18.1006 20.8322 18.8715 20.5319C19.0599 20.4585 19.2645 20.4321 19.4633 20.4689L22.3333 21L21.6816 18.9702C21.5864 18.6738 21.6408 18.3533 21.7908 18.0805C22.1391 17.447 22.3333 16.7424 22.3333 16C22.3333 13.2386 19.647 11 16.3333 11C13.0196 11 10.3333 13.2386 10.3333 16Z" stroke="#262626" stroke-width="1.5" stroke-linejoin="round"/>
<path d="M18.2064 11.2485C18.2898 10.8434 18.3333 10.4261 18.3333 10C18.3333 6.13401 14.7516 3 10.3333 3C5.91503 3 2.33331 6.13401 2.33331 10C2.33331 11.1124 2.62984 12.1641 3.15751 13.0981C3.30433 13.358 3.35302 13.6653 3.26574 13.9507L2.33331 17L6.24745 16.2394C6.45514 16.199 6.66952 16.2273 6.8645 16.3094C7.94892 16.7662 9.17469 17.0157 10.4531 16.9992" stroke="#262626" stroke-width="1.5" stroke-linejoin="round"/>
</svg>
