<svg width="32" height="32" viewBox="0 0 32 32" fill="none" xmlns="http://www.w3.org/2000/svg">
<path d="M26 7.3335L25.4643 16.0084M6 7.3335L6.80615 20.6999C7.0126 24.1231 7.11584 25.8347 7.97157 27.0655C8.39467 27.674 8.93973 28.1878 9.57207 28.5738C10.4671 29.1202 11.5748 29.2843 13.3333 29.3335" stroke="#D50404" stroke-width="1.5" stroke-linecap="round"/>
<path d="M26.6668 20L17.3335 29.3327M26.6668 29.3333L17.3335 20.0007" stroke="#D50404" stroke-width="1.5" stroke-linecap="round" stroke-linejoin="round"/>
<path d="M4 7.33317H28M21.4076 7.33317L20.4975 5.45548C19.8928 4.20818 19.5904 3.58453 19.0689 3.19558C18.9533 3.1093 18.8308 3.03256 18.7027 2.9661C18.1252 2.6665 17.4321 2.6665 16.046 2.6665C14.6251 2.6665 13.9147 2.6665 13.3276 2.97866C13.1975 3.04785 13.0733 3.1277 12.9564 3.2174C12.4289 3.6221 12.1342 4.26857 11.5448 5.56152L10.7372 7.33317" stroke="#D50404" stroke-width="1.5" stroke-linecap="round"/>
</svg>
