<svg width="18" height="18" viewBox="0 0 18 18" fill="none" xmlns="http://www.w3.org/2000/svg">
<path d="M5.71634 2.18112C7.79142 1.18181 10.2086 1.18181 12.2837 2.18112C14.3588 3.18043 15.8659 5.07028 16.3784 7.31571C16.8909 9.56114 16.353 11.9177 14.917 13.7184C13.481 15.5191 11.3032 16.5679 9.00003 16.5679C6.69686 16.5679 4.51903 15.5191 3.08302 13.7184C1.64702 11.9177 1.10914 9.56114 1.62164 7.31571C2.13414 5.07028 3.64125 3.18043 5.71634 2.18112Z" fill="#C2CCDE" fill-opacity="0.25"/>
<path d="M6.90003 7.19978C6.90003 7.53115 6.6314 7.79978 6.30003 7.79978C5.96866 7.79978 5.70003 7.53115 5.70003 7.19978C5.70003 6.86841 5.96866 6.59978 6.30003 6.59978C6.6314 6.59978 6.90003 6.86841 6.90003 7.19978Z" fill="#C2CCDE" fill-opacity="0.25"/>
<path d="M12.3 7.19978C12.3 7.53115 12.0314 7.79978 11.7 7.79978C11.3687 7.79978 11.1 7.53115 11.1 7.19978C11.1 6.86841 11.3687 6.59978 11.7 6.59978C12.0314 6.59978 12.3 6.86841 12.3 7.19978Z" fill="#C2CCDE" fill-opacity="0.25"/>
<path d="M12.182 12.1818C11.3381 13.0257 10.1935 13.4998 9.00003 13.4998C7.80656 13.4998 6.66196 13.0257 5.81805 12.1818M1.62164 7.31571C2.13414 5.07028 3.64125 3.18043 5.71634 2.18112C7.79142 1.18181 10.2086 1.18181 12.2837 2.18112C14.3588 3.18043 15.8659 5.07028 16.3784 7.31571C16.8909 9.56114 16.353 11.9177 14.917 13.7184C13.481 15.5191 11.3032 16.5679 9.00003 16.5679C6.69686 16.5679 4.51903 15.5191 3.08302 13.7184C1.64702 11.9177 1.10914 9.56114 1.62164 7.31571ZM6.90003 7.19978C6.90003 7.53115 6.6314 7.79978 6.30003 7.79978C5.96866 7.79978 5.70003 7.53115 5.70003 7.19978C5.70003 6.86841 5.96866 6.59978 6.30003 6.59978C6.6314 6.59978 6.90003 6.86841 6.90003 7.19978ZM12.3 7.19978C12.3 7.53115 12.0314 7.79978 11.7 7.79978C11.3687 7.79978 11.1 7.53115 11.1 7.19978C11.1 6.86841 11.3687 6.59978 11.7 6.59978C12.0314 6.59978 12.3 6.86841 12.3 7.19978Z" stroke="#414141" stroke-linecap="round" stroke-linejoin="round"/>
</svg>
