<svg width="20" height="21" viewBox="0 0 20 21" fill="none" xmlns="http://www.w3.org/2000/svg">
<path fill-rule="evenodd" clip-rule="evenodd" d="M12.6763 11.1342C12.8468 10.748 12.942 10.3181 12.942 10.1247C12.942 8.4481 11.6394 7.08875 10.0328 7.08875C8.42634 7.08875 7.12378 8.4481 7.12378 10.1247C7.12378 11.8012 8.57834 12.9011 10.0328 12.9011C10.9633 12.9011 11.7914 12.446 12.3226 11.7375C12.4618 11.5522 12.5812 11.3498 12.6763 11.1342ZM10.0328 11.3832C10.3965 11.3832 10.7289 11.2438 10.9846 11.0133C11.2928 10.7354 11.4286 10.324 11.4286 10.1247C11.4286 9.28639 10.8368 8.60667 10.0328 8.60667C9.22891 8.60667 8.57141 9.28525 8.57141 10.1235C8.57141 10.7024 9.22891 11.3832 10.0328 11.3832Z" fill="black"/>
<path fill-rule="evenodd" clip-rule="evenodd" d="M0.780034 10.3181C0.768669 10.3041 0.791398 10.3329 0.780034 10.3181C0.691119 10.1965 0.693357 10.0518 0.780434 9.92877C0.786812 9.91977 0.793312 9.91041 0.799898 9.90084C3.41495 6.08297 6.65784 4.05212 10.0101 4.05212C13.3589 4.05212 16.5989 6.07751 19.2111 9.88769C19.2607 9.95998 19.2857 10.0343 19.2857 10.1232C19.2857 10.2165 19.2566 10.2949 19.2044 10.3708C16.5929 14.1737 13.3558 16.195 10.0101 16.195C6.64932 16.195 3.39793 14.1545 0.780034 10.3181ZM2.81358 9.66105C2.59859 9.92834 2.59859 10.318 2.81358 10.5853C5.05293 13.3695 7.57438 14.6771 10.0101 14.6771C12.4459 14.6771 14.9673 13.3695 17.2067 10.5853C17.4217 10.318 17.4217 9.92834 17.2067 9.66105C14.9673 6.87695 12.4459 5.57007 10.0101 5.57007C7.57438 5.57007 5.05293 6.87695 2.81358 9.66105Z" fill="black"/>
</svg>
