<svg width="18" height="19" viewBox="0 0 18 19" fill="none" xmlns="http://www.w3.org/2000/svg">
<g clip-path="url(#clip0_102_523)">
<path fill-rule="evenodd" clip-rule="evenodd" d="M14.5882 1.05833C14.3422 0.91438 14.0277 0.999809 13.8857 1.24913L12.3128 4.01134C11.2412 3.50976 10.132 3.25329 9.00909 3.25329C5.99206 3.25329 3.07347 5.10592 0.71992 8.58871L0.710586 8.6024L0.702421 8.61423C0.624026 8.72647 0.622025 8.85845 0.702029 8.96941C2.43873 11.5491 4.48521 13.2386 6.65251 13.9487L5.39955 16.1475C5.25751 16.3968 5.34179 16.7156 5.58777 16.8596L5.81047 16.9899C6.05645 17.1338 6.37098 17.0485 6.51301 16.7991L14.9991 1.90073C15.1412 1.65141 15.0569 1.33261 14.8109 1.18865L14.5882 1.05833ZM11.6305 5.20917C10.7584 4.82519 9.87772 4.63803 9.00909 4.63803C6.81695 4.63803 4.54764 5.83021 2.53223 8.37001C2.33876 8.61384 2.33876 8.96928 2.53223 9.21311C4.04297 11.117 5.69633 12.2639 7.35296 12.719L8.21921 11.1981C7.22966 10.8825 6.41139 10.0021 6.41139 8.79294C6.41139 7.26346 7.58369 6.02344 9.02954 6.02344C9.69695 6.02344 10.3061 6.28765 10.7685 6.72256L11.6305 5.20917ZM10.0536 7.97773C9.83092 7.63252 9.46482 7.40816 9.02954 7.40816C8.306 7.40816 7.71425 8.02717 7.71425 8.79191C7.71425 9.29733 8.25631 9.88792 8.93722 9.93761L10.0536 7.97773Z" fill="black"/>
<path d="M9.44189 14.3178C12.2986 14.1498 15.0465 12.3202 17.2842 9.01739C17.331 8.94822 17.3572 8.87667 17.3572 8.79156C17.3572 8.71043 17.3347 8.64267 17.2901 8.57671C16.4301 7.30527 15.4945 6.25172 14.5063 5.42676L13.8253 6.62223C14.3928 7.11087 14.9485 7.69246 15.4861 8.36997C15.6796 8.61381 15.6796 8.96924 15.4861 9.21308C13.8649 11.2561 12.0795 12.4276 10.3021 12.8077L9.44189 14.3178Z" fill="black"/>
</g>
<defs>
<clipPath id="clip0_102_523">
<rect width="18" height="18" fill="white" transform="translate(0 0.0617676)"/>
</clipPath>
</defs>
</svg>
