<svg width="20" height="21" viewBox="0 0 20 21" fill="none" xmlns="http://www.w3.org/2000/svg">
<path d="M5.00195 6.83228C4.27236 6.95105 3.73519 7.16948 3.2998 7.57119C2.3455 8.45166 2.21226 9.90619 1.94579 12.8154L1.67347 15.7884C1.57014 17.253 2.71586 18.4989 4.16615 18.4989H4.78838C5.81025 18.4989 6.72916 17.869 7.10867 16.9084L7.72733 15.3424C7.93026 14.8286 8.03172 14.5718 8.24336 14.4268C8.45499 14.2817 8.72832 14.2817 9.27491 14.2817H10.7257C11.2723 14.2817 11.5457 14.2817 11.7573 14.4268C11.9689 14.5718 12.0704 14.8286 12.2733 15.3424L12.892 16.9084C13.2715 17.869 14.1904 18.4989 15.2122 18.4989H15.8345C17.2848 18.4989 18.4305 17.253 18.3272 15.7884L18.0574 12.8202C17.7928 9.90894 17.6605 8.45328 16.706 7.572C16.2704 7.16978 15.7327 6.95113 15.0023 6.83228" stroke="white" stroke-width="1.25" stroke-linecap="round" stroke-linejoin="round"/>
<path d="M14.166 10.9989H14.1735" stroke="white" stroke-width="1.66667" stroke-linecap="round" stroke-linejoin="round"/>
<path d="M5.83301 10.9989H5.84049" stroke="white" stroke-width="1.66667" stroke-linecap="round" stroke-linejoin="round"/>
<path d="M9.99866 2.66565L10.2137 3.24651C10.4955 4.00817 10.6364 4.389 10.9142 4.66681C11.192 4.94462 11.5728 5.08554 12.3345 5.36738L12.9153 5.58232L12.3345 5.79725C11.5728 6.07909 11.192 6.22002 10.9142 6.49782C10.6364 6.77563 10.4955 7.15647 10.2137 7.91812L9.99866 8.49898L9.78374 7.91812C9.50191 7.15647 9.36099 6.77563 9.08316 6.49782C8.80541 6.22001 8.42457 6.07909 7.66288 5.79725L7.08203 5.58232L7.66288 5.36738C8.42457 5.08554 8.80541 4.94462 9.08316 4.66681C9.36099 4.389 9.50191 4.00817 9.78374 3.24651L9.99866 2.66565Z" stroke="white" stroke-width="1.25" stroke-linejoin="round"/>
</svg>
