<svg width="20" height="20" viewBox="0 0 20 20" fill="none" xmlns="http://www.w3.org/2000/svg">
<path d="M5.00195 6.25C4.27236 6.36878 3.73519 6.58721 3.2998 6.98892C2.3455 7.86938 2.21226 9.32392 1.94579 12.2331L1.67347 15.2061C1.57014 16.6707 2.71586 17.9167 4.16615 17.9167H4.78838C5.81025 17.9167 6.72916 17.2867 7.10867 16.3261L7.72733 14.7601C7.93026 14.2463 8.03172 13.9895 8.24336 13.8445C8.45499 13.6994 8.72832 13.6994 9.27491 13.6994H10.7257C11.2723 13.6994 11.5457 13.6994 11.7573 13.8445C11.9689 13.9895 12.0704 14.2463 12.2733 14.7601L12.892 16.3261C13.2715 17.2867 14.1904 17.9167 15.2122 17.9167H15.8345C17.2848 17.9167 18.4305 16.6707 18.3272 15.2061L18.0574 12.2379C17.7928 9.32667 17.6605 7.87101 16.706 6.98972C16.2704 6.5875 15.7327 6.36886 15.0023 6.25" stroke="#262626" stroke-width="1.25" stroke-linecap="round" stroke-linejoin="round"/>
<path d="M14.166 10.4166H14.1735" stroke="#262626" stroke-width="1.66667" stroke-linecap="round" stroke-linejoin="round"/>
<path d="M5.83301 10.4166H5.84049" stroke="#262626" stroke-width="1.66667" stroke-linecap="round" stroke-linejoin="round"/>
<path d="M9.99866 2.08337L10.2137 2.66423C10.4955 3.42589 10.6364 3.80672 10.9142 4.08453C11.192 4.36235 11.5728 4.50327 12.3345 4.78511L12.9153 5.00004L12.3345 5.21497C11.5728 5.49682 11.192 5.63774 10.9142 5.91555C10.6364 6.19336 10.4955 6.57419 10.2137 7.33585L9.99866 7.91671L9.78374 7.33585C9.50191 6.57419 9.36099 6.19336 9.08316 5.91555C8.80541 5.63773 8.42457 5.49682 7.66288 5.21497L7.08203 5.00004L7.66288 4.78511C8.42457 4.50327 8.80541 4.36235 9.08316 4.08453C9.36099 3.80672 9.50191 3.42589 9.78374 2.66423L9.99866 2.08337Z" stroke="#262626" stroke-width="1.25" stroke-linejoin="round"/>
</svg>
