<svg width="32" height="32" viewBox="0 0 32 32" fill="none" xmlns="http://www.w3.org/2000/svg">
<path d="M20 23.5C19.9019 25.9692 17.8441 28.0659 15.0875 27.9984C14.4461 27.9827 13.6535 27.7592 12.0682 27.312C8.25281 26.2357 4.94073 24.4271 4.14608 20.3753C4 19.6307 4 18.7925 4 17.1164V14.8836C4 13.2075 4 12.3694 4.14608 11.6246C4.94073 7.57286 8.25281 5.76421 12.0682 4.68804C13.6535 4.24085 14.4461 4.01726 15.0875 4.00158C17.8441 3.93414 19.9019 6.03076 20 8.50001" stroke="#153685" stroke-width="1.5" stroke-linecap="round"/>
<path d="M28.0002 15.9998H13.3335M28.0002 15.9998C28.0002 15.0662 25.3411 13.3219 24.6668 12.6665M28.0002 15.9998C28.0002 16.9334 25.3411 18.6778 24.6668 19.3332" stroke="#153685" stroke-width="1.5" stroke-linecap="round" stroke-linejoin="round"/>
</svg>
