<svg width="14" height="17" viewBox="0 0 14 17" fill="none" xmlns="http://www.w3.org/2000/svg">
<path d="M2.83398 0.246338C2.17094 0.246338 1.53506 0.50973 1.06622 0.978571C0.597376 1.44741 0.333984 2.0833 0.333984 2.74634V14.413C0.333984 15.076 0.597376 15.7119 1.06622 16.1808C1.53506 16.6496 2.17094 16.913 2.83398 16.913H11.1673C11.8304 16.913 12.4662 16.6496 12.9351 16.1808C13.4039 15.7119 13.6673 15.076 13.6673 14.413V13.5797C13.6673 13.1194 13.2942 12.7463 12.834 12.7463C12.3737 12.7463 12.0007 13.1194 12.0007 13.5797V14.413C12.0007 14.634 11.9129 14.846 11.7566 15.0023C11.6003 15.1585 11.3883 15.2463 11.1673 15.2463H2.83398C2.61297 15.2463 2.40101 15.1585 2.24473 15.0023C2.08845 14.846 2.00065 14.634 2.00065 14.413V2.74634C2.00065 2.52532 2.08845 2.31336 2.24473 2.15708C2.40101 2.0008 2.61297 1.913 2.83398 1.913H11.1673C11.3883 1.913 11.6003 2.0008 11.7566 2.15708C11.9129 2.31336 12.0007 2.52532 12.0007 2.74634V3.57967C12.0007 4.03991 12.3737 4.413 12.834 4.413C13.2942 4.413 13.6673 4.03991 13.6673 3.57967V2.74634C13.6673 2.0833 13.4039 1.44741 12.9351 0.978571C12.4662 0.50973 11.8304 0.246338 11.1673 0.246338H2.83398Z" fill="#D50404"/>
<path d="M10.9232 5.49042C10.5978 5.16498 10.0702 5.16498 9.74473 5.49042C9.41929 5.81585 9.41929 6.34349 9.74473 6.66893L10.8221 7.74634H7.00065C6.54041 7.74634 6.16732 8.11943 6.16732 8.57967C6.16732 9.03991 6.54041 9.413 7.00065 9.413H10.8221L9.74473 10.4904C9.41929 10.8159 9.41929 11.3435 9.74473 11.6689C10.0702 11.9944 10.5978 11.9944 10.9232 11.6689L13.4232 9.16893C13.7487 8.84349 13.7487 8.31585 13.4232 7.99042L10.9232 5.49042Z" fill="#D50404"/>
</svg>
