<svg width="25" height="24" viewBox="0 0 25 24" fill="none" xmlns="http://www.w3.org/2000/svg">
<path d="M7.66675 7H7.67572M13.6577 7H13.6667" stroke="white" stroke-width="2" stroke-linecap="round" stroke-linejoin="round"/>
<path d="M18.6577 14.5H18.6667M14.6667 14.5H14.6757" stroke="white" stroke-width="2" stroke-linecap="round" stroke-linejoin="round"/>
<path d="M10.6667 16C10.6667 18.7614 13.353 21 16.6667 21C17.5739 21 18.434 20.8322 19.2049 20.5319C19.3933 20.4585 19.5979 20.4321 19.7967 20.4689L22.6667 21L22.015 18.9702C21.9198 18.6738 21.9742 18.3533 22.1242 18.0805C22.4725 17.447 22.6667 16.7424 22.6667 16C22.6667 13.2386 19.9804 11 16.6667 11C13.353 11 10.6667 13.2386 10.6667 16Z" stroke="white" stroke-width="1.5" stroke-linejoin="round"/>
<path d="M18.5398 11.2485C18.6232 10.8434 18.6667 10.4261 18.6667 10C18.6667 6.13401 15.085 3 10.6667 3C6.24847 3 2.66675 6.13401 2.66675 10C2.66675 11.1124 2.96328 12.1641 3.49095 13.0981C3.63777 13.358 3.68646 13.6653 3.59918 13.9507L2.66675 17L6.58089 16.2394C6.78858 16.199 7.00296 16.2273 7.19794 16.3094C8.28236 16.7662 9.50813 17.0157 10.7865 16.9992" stroke="white" stroke-width="1.5" stroke-linejoin="round"/>
</svg>
