<svg width="16" height="16" viewBox="0 0 16 16" fill="none" xmlns="http://www.w3.org/2000/svg">
<path d="M10.8094 3.32159L11.7438 2.38709C12.26 1.87097 13.0968 1.87097 13.6129 2.38709C14.129 2.9032 14.129 3.73999 13.6129 4.2561L12.6784 5.19061M10.8094 3.32159L7.32011 6.81087C6.62327 7.50773 6.27482 7.85613 6.03756 8.28073C5.80029 8.70533 5.56158 9.70793 5.33331 10.6667C6.29204 10.4384 7.29465 10.1997 7.71925 9.9624C8.14385 9.72513 8.49225 9.37673 9.18911 8.67987L12.6784 5.19061M10.8094 3.32159L12.6784 5.19061" stroke="white" stroke-linecap="round" stroke-linejoin="round"/>
<path d="M14 8C14 10.8284 14 12.2427 13.1213 13.1213C12.2427 14 10.8284 14 8 14C5.17157 14 3.75736 14 2.87868 13.1213C2 12.2427 2 10.8284 2 8C2 5.17157 2 3.75736 2.87868 2.87868C3.75736 2 5.17157 2 8 2" stroke="white" stroke-linecap="round"/>
</svg>
