<svg width="16" height="18" viewBox="0 0 16 18" fill="none" xmlns="http://www.w3.org/2000/svg">
<path d="M4.44997 4.33405C4.435 4.7866 4.50932 5.23768 4.66867 5.66151C4.82802 6.08535 5.0693 6.47365 5.37872 6.80424C5.68814 7.13484 6.05964 7.40125 6.47202 7.58827C6.8844 7.77529 7.32958 7.87925 7.78213 7.89422C8.23469 7.90919 8.68577 7.83488 9.1096 7.67552C9.53344 7.51617 9.92174 7.2749 10.2523 6.96548C10.5829 6.65606 10.8493 6.28455 11.0364 5.87217C11.2234 5.45979 11.3273 5.01462 11.3423 4.56206C11.3573 4.1095 11.283 3.65843 11.1236 3.23459C10.9643 2.81075 10.723 2.42245 10.4136 2.09186C10.1041 1.76127 9.73264 1.49486 9.32026 1.30784C8.90788 1.12082 8.46271 1.01686 8.01015 1.00189C7.55759 0.986914 7.10652 1.06123 6.68268 1.22058C6.25884 1.37993 5.87054 1.62121 5.53995 1.93063C5.20936 2.24005 4.94295 2.61155 4.75593 3.02393C4.56891 3.43631 4.46495 3.88149 4.44997 4.33405Z" stroke="#262626" stroke-width="1.5" stroke-linecap="round" stroke-linejoin="round"/>
<path d="M14.7922 17.0911C14.2273 15.7302 13.2706 14.5671 12.0431 13.7488C10.8156 12.9304 9.37243 12.4937 7.89614 12.4937C6.41984 12.4937 4.97669 12.9304 3.7492 13.7488C2.5217 14.5671 1.56499 15.7302 1.00003 17.0911" stroke="#262626" stroke-width="1.5" stroke-linecap="round" stroke-linejoin="round"/>
</svg>
