<svg width="20" height="21" viewBox="0 0 20 21" fill="none" xmlns="http://www.w3.org/2000/svg">
<path d="M4.16699 8.91565C5.5477 8.91565 6.66699 7.79636 6.66699 6.41565C6.66699 5.03494 5.5477 3.91565 4.16699 3.91565C2.78628 3.91565 1.66699 5.03494 1.66699 6.41565C1.66699 7.79636 2.78628 8.91565 4.16699 8.91565Z" stroke="#262626" stroke-width="1.25"/>
<path d="M6.66634 18.9156C8.50729 18.9156 9.99967 17.4232 9.99967 15.5822C9.99967 13.7413 8.50729 12.2489 6.66634 12.2489C4.82539 12.2489 3.33301 13.7413 3.33301 15.5822C3.33301 17.4232 4.82539 18.9156 6.66634 18.9156Z" stroke="#262626" stroke-width="1.25"/>
<path d="M14.1667 10.5822C16.4679 10.5822 18.3333 8.71675 18.3333 6.41557C18.3333 4.11438 16.4679 2.2489 14.1667 2.2489C11.8655 2.2489 10 4.11438 10 6.41557C10 8.71675 11.8655 10.5822 14.1667 10.5822Z" stroke="#262626" stroke-width="1.25"/>
</svg>
