<svg width="20" height="21" viewBox="0 0 20 21" fill="none" xmlns="http://www.w3.org/2000/svg">
<path d="M17.3117 14.8462C17.9361 14.8462 18.4327 14.4533 18.8787 13.9038C19.7916 12.779 18.2928 11.8802 17.7212 11.44C17.14 10.9925 16.4912 10.739 15.8333 10.6795M15 9.01286C16.1506 9.01286 17.0833 8.08012 17.0833 6.92952C17.0833 5.77893 16.1506 4.84619 15 4.84619" stroke="#262626" stroke-width="1.5" stroke-linecap="round"/>
<path d="M2.68797 14.8462C2.06356 14.8462 1.5669 14.4533 1.12096 13.9038C0.20808 12.779 1.7069 11.8802 2.27855 11.44C2.85965 10.9925 3.50849 10.739 4.16634 10.6795M4.58301 9.01286C3.43241 9.01286 2.49967 8.08012 2.49967 6.92952C2.49967 5.77893 3.43241 4.84619 4.58301 4.84619" stroke="#262626" stroke-width="1.5" stroke-linecap="round"/>
<path d="M6.73617 12.4387C5.8847 12.9652 3.65216 14.0403 5.01192 15.3855C5.67616 16.0427 6.41594 16.5127 7.34603 16.5127H12.6533C13.5834 16.5127 14.3232 16.0427 14.9874 15.3855C16.3472 14.0403 14.1147 12.9652 13.2632 12.4387C11.2664 11.204 8.73292 11.204 6.73617 12.4387Z" stroke="#262626" stroke-width="1.5" stroke-linecap="round" stroke-linejoin="round"/>
<path d="M12.9163 6.09635C12.9163 7.70719 11.6105 9.01302 9.99967 9.01302C8.38884 9.01302 7.08301 7.70719 7.08301 6.09635C7.08301 4.48552 8.38884 3.17969 9.99967 3.17969C11.6105 3.17969 12.9163 4.48552 12.9163 6.09635Z" stroke="#262626" stroke-width="1.5"/>
</svg>
